<?xml version="1.0" encoding="utf-8"?>
<!-- Generator: Adobe Illustrator 17.0.0, SVG Export Plug-In . SVG Version: 6.00 Build 0)  -->
<!DOCTYPE svg PUBLIC "-//W3C//DTD SVG 1.1//EN" "http://www.w3.org/Graphics/SVG/1.1/DTD/svg11.dtd">
<svg version="1.1" id="Layer_1" xmlns="http://www.w3.org/2000/svg" xmlns:xlink="http://www.w3.org/1999/xlink" x="0px" y="0px"
	 width="200.369px" height="36.235px" viewBox="0 0 200.369 36.235" enable-background="new 0 0 200.369 36.235"
	 xml:space="preserve">
<g>
	<g>
		<g>
			<path fill="#0054A4" d="M47.393,19.665h3.11v13.164h11.543v2.76H47.393V19.665z"/>
			<path fill="#0054A4" d="M65.726,19.665h3.11v15.923h-3.11V19.665z"/>
			<path fill="#0054A4" d="M90.629,29.917c-0.306,1.773-1.576,6.066-8.892,6.066c-5.038,0-9.002-2.803-9.002-8.607
				c0-4.645,2.913-8.105,9.243-8.105c7.119,0,8.171,4.622,8.411,5.476H87.28c-0.175-0.549-1.402-2.802-5.126-2.802
				c-4.403,0-6.243,2.474-6.243,5.781c0,3.658,2.65,5.586,6.067,5.586c3.637,0,5.236-2.168,5.542-3.395H90.629z"/>
			<path fill="#0054A4" d="M94.463,19.665h14.28v2.673H97.573v3.699h9.617v2.674h-9.617v4.205h11.435v2.672H94.463V19.665z"/>
			<path fill="#0054A4" d="M112.598,19.665h3.286l10.645,11.499V19.665h2.979v15.923h-2.848l-11.082-11.916v11.916h-2.98V19.665z"/>
			<path fill="#0054A4" d="M146.769,24.507c-0.503-1.426-1.797-2.65-5.586-2.65c-2.102,0-4.228,0.525-4.228,1.992
				c0,0.68,0.395,1.402,3.569,1.797l3.768,0.568c3.571,0.547,5.674,1.928,5.674,4.6c0,3.767-3.593,5.17-7.843,5.17
				c-6.833,0-8.498-3.373-8.87-4.578l3-0.941c0.57,1.16,1.752,2.848,5.959,2.848c2.54,0,4.643-0.832,4.643-2.213
				c0-1.029-1.183-1.709-3.46-1.992l-3.812-0.525c-3.679-0.504-5.739-2.104-5.739-4.535c0-4.775,6.201-4.775,7.428-4.775
				c6.854,0,8.038,3.175,8.432,4.271L146.769,24.507z"/>
			<path fill="#0054A4" d="M153.91,19.665h3.109v15.923h-3.109V19.665z"/>
			<path fill="#0054A4" d="M162.079,19.665h3.287l10.644,11.499V19.665h2.979v15.923h-2.848l-11.083-11.916v11.916h-2.979V19.665z"
				/>
			<path fill="#0054A4" d="M200.28,27.419v8.346h-1.885l-0.612-1.642c-1.205,0.789-2.871,1.861-5.959,1.861
				c-4.074,0-9.003-1.992-9.003-8.322c0-4.25,2.562-8.39,8.916-8.39c3.658,0,7.665,1.359,8.432,5.367h-3.176
				c-0.371-0.811-1.226-2.693-4.884-2.693c-4.994,0-6.177,3.373-6.177,5.583c0,3.768,2.54,5.695,5.913,5.695
				c3.066,0,4.776-1.072,5.52-3.307h-5.585v-2.498H200.28z"/>
		</g>
	</g>
	<g>
		<g>
			<path fill="#96A5D2" d="M49.944,6.865h1.08l0.889,4.87h0.022l0.73-4.87h1.228l-1.344,7.644h-1.101l-0.953-5.05h-0.021l-0.89,5.05
				h-1.101l-1.451-7.644h1.229l0.804,4.87h0.021L49.944,6.865z"/>
			<path fill="#96A5D2" d="M55.63,14.509h-1.27l1.408-7.644h1.631l1.408,7.644h-1.27l-0.233-1.693h-1.439L55.63,14.509z
				 M56.055,11.672h1.058l-0.519-3.281h-0.021L56.055,11.672z"/>
			<path fill="#96A5D2" d="M62.49,8.75c-0.052-0.656-0.402-0.847-0.698-0.847c-0.424,0-0.656,0.275-0.656,0.751
				c0,1.303,2.667,1.927,2.667,4.002c0,1.26-0.846,1.959-2.075,1.959c-1.216,0-1.916-0.974-1.969-2.117l1.249-0.18
				c0.053,0.773,0.36,1.154,0.784,1.154c0.456,0,0.763-0.244,0.763-0.7c0-1.514-2.669-1.915-2.669-4.107
				c0-1.218,0.741-1.905,2.032-1.905c1.07,0,1.706,0.773,1.822,1.854L62.49,8.75z"/>
			<path fill="#96A5D2" d="M65.328,14.509V6.865h1.312v3.113h1.397V6.865h1.312v7.644h-1.312v-3.388h-1.397v3.388H65.328z"/>
			<path fill="#96A5D2" d="M71.331,14.509V6.865h1.312v7.644H71.331z"/>
			<path fill="#96A5D2" d="M74.624,14.509V6.865h1.217l1.599,4.373h0.021V6.865h1.186v7.644h-1.144L75.83,9.734h-0.021v4.774H74.624
				z"/>
			<path fill="#96A5D2" d="M82.257,10.635h2.148v3.874h-0.634l-0.244-0.571c-0.392,0.466-0.709,0.678-1.323,0.678
				c-1.038,0-1.757-0.741-1.757-1.959V8.718c0-1.079,0.634-1.958,1.926-1.958c1.313,0,1.97,0.953,1.97,2.096v0.488h-1.25
				c0-1.144-0.232-1.44-0.751-1.44c-0.317,0-0.582,0.19-0.582,0.836v3.928c0,0.487,0.159,0.806,0.613,0.806
				c0.529,0,0.72-0.298,0.72-1.061v-0.74h-0.835V10.635z"/>
			<path fill="#96A5D2" d="M87.032,8.009h-1.271V6.865h3.854v1.144h-1.272v6.5h-1.312V8.009z"/>
			<path fill="#96A5D2" d="M90.918,8.718c0-1.079,0.635-1.958,2.011-1.958c1.378,0,2.012,0.879,2.012,1.958v3.938
				c0,1.08-0.634,1.959-2.012,1.959c-1.376,0-2.011-0.879-2.011-1.959V8.718z M92.23,12.624c0,0.573,0.17,0.849,0.698,0.849
				c0.53,0,0.699-0.275,0.699-0.849V8.75c0-0.571-0.169-0.847-0.699-0.847c-0.528,0-0.698,0.275-0.698,0.847V12.624z"/>
			<path fill="#96A5D2" d="M96.741,14.509V6.865h1.217l1.599,4.373h0.021V6.865h1.187v7.644h-1.145l-1.672-4.774h-0.021v4.774
				H96.741z"/>
			<path fill="#96A5D2" d="M107.834,8.75c-0.052-0.656-0.402-0.847-0.698-0.847c-0.425,0-0.656,0.275-0.656,0.751
				c0,1.303,2.667,1.927,2.667,4.002c0,1.26-0.846,1.959-2.074,1.959c-1.217,0-1.916-0.974-1.971-2.117l1.251-0.18
				c0.052,0.773,0.358,1.154,0.783,1.154c0.455,0,0.762-0.244,0.762-0.7c0-1.514-2.668-1.915-2.668-4.107
				c0-1.218,0.742-1.905,2.032-1.905c1.07,0,1.705,0.773,1.822,1.854L107.834,8.75z"/>
			<path fill="#96A5D2" d="M111.436,8.009h-1.272V6.865h3.854v1.144h-1.271v6.5h-1.312V8.009z"/>
			<path fill="#96A5D2" d="M115.894,14.509h-1.271l1.407-7.644h1.632l1.407,7.644h-1.27l-0.233-1.693h-1.44L115.894,14.509z
				 M116.317,11.672h1.059l-0.518-3.281h-0.022L116.317,11.672z"/>
			<path fill="#96A5D2" d="M120.734,8.009h-1.27V6.865h3.852v1.144h-1.269v6.5h-1.313V8.009z"/>
			<path fill="#96A5D2" d="M124.619,14.509V6.865h3.514v1.144h-2.2v1.97h1.693v1.143h-1.693v2.244h2.35v1.144H124.619z"/>
			<path fill="#96A5D2" d="M132.727,6.865h1.95c1.354,0,2.074,0.741,2.074,2.309v3.027c0,1.566-0.721,2.308-2.074,2.308h-1.95V6.865
				z M134.04,13.43h0.455c0.7,0,0.943-0.266,0.943-1.069V9.015c0-0.805-0.243-1.069-0.943-1.069h-0.455V13.43z"/>
			<path fill="#96A5D2" d="M138.551,14.509V6.865h3.515v1.144h-2.202v1.97h1.693v1.143h-1.693v2.244h2.35v1.144H138.551z"/>
			<path fill="#96A5D2" d="M143.781,14.509V6.865h1.884c1.62,0,2.371,0.625,2.371,2.256c0,1.629-0.751,2.254-2.371,2.254h-0.57
				v3.134H143.781z M145.094,10.296h0.507c0.857,0,1.123-0.265,1.123-1.175c0-0.911-0.266-1.176-1.123-1.176h-0.507V10.296z"/>
			<path fill="#96A5D2" d="M150.366,14.509h-1.27l1.409-7.644h1.63l1.407,7.644h-1.269l-0.233-1.693h-1.44L150.366,14.509z
				 M150.788,11.672h1.061l-0.52-3.281h-0.021L150.788,11.672z"/>
			<path fill="#96A5D2" d="M156.146,14.509h-1.312V6.865h1.843c1.472,0,2.222,0.625,2.222,2.256c0,1.228-0.476,1.726-0.919,1.927
				l1.11,3.461h-1.334l-0.932-3.165c-0.169,0.022-0.444,0.031-0.678,0.031V14.509z M156.146,10.296h0.467
				c0.708,0,0.974-0.265,0.974-1.175c0-0.911-0.266-1.176-0.974-1.176h-0.467V10.296z"/>
			<path fill="#96A5D2" d="M161.418,8.009h-1.271V6.865h3.854v1.144h-1.271v6.5h-1.312V8.009z"/>
			<path fill="#96A5D2" d="M170.566,6.865v7.644h-1.143V8.537h-0.022l-1.186,5.972h-0.635l-1.186-5.972h-0.021v5.972h-1.143V6.865
				h1.725l0.932,4.469h0.021l0.933-4.469H170.566z"/>
			<path fill="#96A5D2" d="M172.302,14.509V6.865h3.515v1.144h-2.202v1.97h1.693v1.143h-1.693v2.244h2.352v1.144H172.302z"/>
			<path fill="#96A5D2" d="M177.532,14.509V6.865h1.218l1.598,4.373h0.022V6.865h1.186v7.644h-1.143l-1.673-4.774h-0.021v4.774
				H177.532z"/>
			<path fill="#96A5D2" d="M184.117,8.009h-1.269V6.865h3.853v1.144h-1.271v6.5h-1.313V8.009z"/>
			<path fill="#96A5D2" d="M190.882,8.718c0-1.079,0.635-1.958,2.012-1.958c1.376,0,2.011,0.879,2.011,1.958v3.938
				c0,1.08-0.635,1.959-2.011,1.959c-1.377,0-2.012-0.879-2.012-1.959V8.718z M192.195,12.624c0,0.573,0.169,0.849,0.699,0.849
				c0.529,0,0.698-0.275,0.698-0.849V8.75c0-0.571-0.169-0.847-0.698-0.847c-0.53,0-0.699,0.275-0.699,0.847V12.624z"/>
			<path fill="#96A5D2" d="M196.705,14.509V6.865h3.663v1.144h-2.352v1.97h1.758v1.143h-1.758v3.388H196.705z"/>
		</g>
	</g>
	<g>
		<circle fill="#0054A4" cx="21.256" cy="26.771" r="2.656"/>
		<path fill="#96A5D2" d="M20.725,32.165v3.482h-6.307v-1.976h-0.069c-1.108,1.768-3.293,2.564-5.372,2.564
			c-5.268,0-8.976-4.4-8.976-9.496c0-5.093,3.64-9.46,8.907-9.46c2.045,0,4.193,0.763,5.511,2.322V6.881h6.307v14.435l-0.009,0.065
			c-2.673,0.334-4.741,2.615-4.741,5.378c0,2.762,2.064,5.041,4.735,5.379L20.725,32.165z M6.516,26.774
			c0,2.252,1.49,3.986,4.055,3.986c2.564,0,4.055-1.734,4.055-3.986c0-2.184-1.491-4.021-4.055-4.021
			C8.005,22.753,6.516,24.591,6.516,26.774z"/>
		<path fill="#96A5D2" d="M21.987,32.108c2.667-0.318,4.734-2.586,4.734-5.338c0-2.74-2.048-5.002-4.698-5.333l-0.017-0.023V0h6.891
			v27.757l-0.01,0.123h9.401v7.74H22.005v-3.5L21.987,32.108z"/>
	</g>
</g>
</svg>
